<?xml version="1.0" encoding="utf-8"?>
<!-- Generator: Adobe Illustrator 17.0.0, SVG Export Plug-In . SVG Version: 6.00 Build 0)  -->
<!DOCTYPE svg PUBLIC "-//W3C//DTD SVG 1.1//EN" "http://www.w3.org/Graphics/SVG/1.1/DTD/svg11.dtd">
<svg version="1.1" id="图层_1" xmlns="http://www.w3.org/2000/svg" xmlns:xlink="http://www.w3.org/1999/xlink" x="0px" y="0px"
	 width="16px" height="18px" viewBox="0 0 16 18" enable-background="new 0 0 16 18" xml:space="preserve">
<g>
	<g>
		<path fill="#818181" d="M13.241,13.152h-2.207v-1.104h2.207V13.152z M11.035,9.842h2.207v1.103h-2.207V9.842z M14.897,15.359H0
			v-1.103h1.103V4.324c0-1.219,0.988-2.207,2.207-2.207h4.965c1.219,0,2.207,0.988,2.207,2.207v9.931h3.31V9.842
			c0-0.61-0.494-1.103-1.103-1.103h-2.207V7.635h2.207c1.219,0,2.207,0.988,2.207,2.207v4.414H16v1.103H14.897z M9.379,13.152V4.324
			c0-0.609-0.494-1.103-1.103-1.103H3.31c-0.61,0-1.103,0.494-1.103,1.103v9.931h7.172V13.152z M6.069,12.6v-1.103h2.207V12.6H6.069
			z M6.069,8.186h2.207V9.29H6.069V8.186z M6.069,4.876h2.207V5.98H6.069V4.876z M3.31,11.497h2.207V12.6H3.31V11.497z M3.31,8.186
			h2.207V9.29H3.31V8.186z M3.31,4.876h2.207V5.98H3.31V4.876z M3.31,4.876"/>
	</g>
</g>
</svg>
