<?xml version="1.0" encoding="utf-8"?>
<!-- Generator: Adobe Illustrator 17.0.0, SVG Export Plug-In . SVG Version: 6.00 Build 0)  -->
<!DOCTYPE svg PUBLIC "-//W3C//DTD SVG 1.1//EN" "http://www.w3.org/Graphics/SVG/1.1/DTD/svg11.dtd">
<svg version="1.1" id="图层_1" xmlns="http://www.w3.org/2000/svg" xmlns:xlink="http://www.w3.org/1999/xlink" x="0px" y="0px"
	 width="16px" height="18px" viewBox="0 0 16 18" enable-background="new 0 0 16 18" xml:space="preserve">
<g>
	<path fill="#818181" d="M14.487,16.015c0,0.294-0.239,0.533-0.533,0.533H1.916c-0.294,0-0.533-0.239-0.533-0.533l0,0
		c0-0.294,0.239-0.533,0.533-0.533h12.038C14.248,15.482,14.487,15.72,14.487,16.015L14.487,16.015z"/>
	<path fill="none" stroke="#818181" stroke-miterlimit="10" d="M12.56,15.346c0,0.369-0.3,0.668-0.669,0.668H4.167
		c-0.37,0-0.669-0.299-0.669-0.668V3.808c0-0.369,0.3-0.668,0.669-0.668h7.724c0.37,0,0.669,0.299,0.669,0.668V15.346z"/>
	<path fill="#818181" d="M8.539,2.988c0,0.337-0.273,0.61-0.61,0.61l0,0c-0.337,0-0.61-0.273-0.61-0.61V1.787
		c0-0.337,0.273-0.61,0.61-0.61l0,0c0.337,0,0.61,0.273,0.61,0.61V2.988z"/>
	<path fill="#818181" d="M8.211,6.495c0,0.31-0.252,0.562-0.562,0.562H5.396c-0.31,0-0.562-0.252-0.562-0.562l0,0
		c0-0.31,0.252-0.562,0.562-0.562h2.253C7.959,5.933,8.211,6.185,8.211,6.495L8.211,6.495z"/>
	<path fill="#818181" d="M11.018,6.495c0,0.311-0.252,0.563-0.563,0.563H9.503c-0.311,0-0.563-0.252-0.563-0.563l0,0
		c0-0.311,0.252-0.563,0.563-0.563h0.953C10.766,5.932,11.018,6.184,11.018,6.495L11.018,6.495z"/>
	<path fill="#818181" d="M8.313,9.577c0,0.31-0.252,0.562-0.562,0.562H5.499c-0.31,0-0.562-0.252-0.562-0.562l0,0
		c0-0.31,0.252-0.562,0.562-0.562h2.253C8.062,9.015,8.313,9.267,8.313,9.577L8.313,9.577z"/>
	<path fill="#818181" d="M11.121,9.577c0,0.311-0.252,0.563-0.563,0.563H9.605c-0.311,0-0.563-0.252-0.563-0.563l0,0
		c0-0.311,0.252-0.563,0.563-0.563h0.953C10.869,9.014,11.121,9.266,11.121,9.577L11.121,9.577z"/>
	<path fill="#818181" d="M8.221,13.14c0,0.31-0.252,0.562-0.562,0.562H5.407c-0.31,0-0.562-0.252-0.562-0.562l0,0
		c0-0.31,0.252-0.562,0.562-0.562H7.66C7.97,12.578,8.221,12.829,8.221,13.14L8.221,13.14z"/>
	<path fill="#818181" d="M11.029,13.14c0,0.311-0.252,0.563-0.563,0.563H9.513c-0.311,0-0.563-0.252-0.563-0.563l0,0
		c0-0.311,0.252-0.563,0.563-0.563h0.953C10.777,12.577,11.029,12.829,11.029,13.14L11.029,13.14z"/>
</g>
</svg>
