<?xml version="1.0" encoding="utf-8"?>
<!-- Generator: Adobe Illustrator 17.0.0, SVG Export Plug-In . SVG Version: 6.00 Build 0)  -->
<!DOCTYPE svg PUBLIC "-//W3C//DTD SVG 1.1//EN" "http://www.w3.org/Graphics/SVG/1.1/DTD/svg11.dtd">
<svg version="1.1" id="图层_1" xmlns="http://www.w3.org/2000/svg" xmlns:xlink="http://www.w3.org/1999/xlink" x="0px" y="0px"
	 width="16px" height="18px" viewBox="0 0 16 18" enable-background="new 0 0 16 18" xml:space="preserve">
<g>
	<path fill="#818181" d="M7.921,16.584c-3.894-0.007-7.15-2.962-7.533-6.837c-0.383-3.875,2.23-7.411,6.048-8.18
		c3.817-0.77,7.597,1.476,8.745,5.197c1.149,3.721-0.707,7.707-4.294,9.222C9.948,16.382,8.939,16.586,7.921,16.584L7.921,16.584z
		 M7.921,2.478c-2.624,0-4.989,1.58-5.993,4.004c-1.004,2.424-0.449,5.214,1.406,7.069c1.855,1.855,4.645,2.41,7.069,1.406
		c2.424-1.004,4.004-3.369,4.004-5.993C14.403,5.384,11.502,2.482,7.921,2.478L7.921,2.478z M7.93,4.723
		c0.51-0.03,1.022,0.021,1.516,0.152c0.494,0.131-0.603,1.529-0.94,1.601c-0.188,0.05-0.382,0.081-0.577,0.091
		c-0.191-0.009-0.382-0.03-0.57-0.065c-0.551-0.084-0.94-1.546-0.94-1.546s0.385-0.233,1.512-0.233 M7.92,3.807
		c-1.423,0-2.019,0.29-2.166,0.381C5.465,4.361,5.325,4.705,5.413,5.03c0.094,0.335,0.21,0.664,0.349,0.983
		c0.117,0.274,0.265,0.533,0.441,0.773c0.217,0.319,0.552,0.54,0.932,0.613c0.259,0.047,0.521,0.075,0.784,0.084
		c0.282-0.009,0.562-0.05,0.835-0.122c0.344-0.1,0.634-0.331,0.808-0.644c0.154-0.234,0.292-0.479,0.413-0.731
		c0.238-0.484,0.422-0.949,0.429-0.968c0.074-0.186,0.07-0.394-0.01-0.578c-0.08-0.184-0.23-0.328-0.417-0.401
		C9.311,3.846,8.615,3.767,7.921,3.807 M8.508,7.669c0,0,1.03,4.28,0.761,4.824c-0.269,0.544-1.347,1.239-1.347,1.239
		s-1.099-0.656-1.351-1.239c-0.253-0.583,0.778-4.824,0.778-4.824H8.508 M8.538,6.756H7.318C6.97,6.756,6.667,6.996,6.585,7.335
		C6.574,7.38,6.307,8.477,6.069,9.67c-0.141,0.709-0.243,1.303-0.302,1.768c-0.11,0.869-0.064,1.208,0.041,1.448
		c0.245,0.472,0.602,0.876,1.041,1.177c0.353,0.274,0.672,0.465,0.686,0.476c0.118,0.069,0.251,0.105,0.387,0.107
		c0.145-0.001,0.288-0.043,0.41-0.122c0.229-0.15,0.451-0.311,0.664-0.484c0.415-0.297,0.763-0.679,1.02-1.12
		c0.099-0.229,0.141-0.479,0.124-0.728c-0.007-0.245-0.026-0.489-0.059-0.731c-0.057-0.465-0.157-1.059-0.298-1.771
		c-0.236-1.2-0.502-2.309-0.513-2.354C9.189,6.995,8.885,6.756,8.536,6.756"/>
</g>
</svg>
